o roda
v -0.104832 -1.234441 -0.172016
v -0.221943 4.398314 -0.136908
v 0.044455 -1.238281 -0.081705
v -0.077089 4.423383 -0.090882
v 0.052689 -1.276676 0.090621
v -0.072702 4.403578 0.091050
v -0.104370 -1.234135 0.176942
v -0.236246 4.469385 0.168302
v -0.278975 -1.235871 0.093364
v -0.375656 4.417888 0.091439
v -0.253817 -1.230401 -0.034297
v -0.366166 4.419756 -0.080859
v -0.554377 1.976580 -0.179571
v -0.370246 1.964479 -0.086252
v -0.377839 1.965061 0.092200
v -0.541775 1.987576 0.184111
v -0.710152 1.956410 0.104409
v -0.713649 1.952865 -0.083511
v 0.057821 0.340199 -0.090503
v 0.016558 0.363175 0.101857
v -0.119613 0.357091 0.115518
v -0.287780 0.335197 0.097262
v -0.269078 0.300506 -0.095945
v -0.126910 0.329164 -0.188766
vt 0.292594 2.197171
vt 0.272884 3.761643
vt 0.176975 3.790009
vt 0.160415 2.179548
vt 0.064428 3.779571
vt 0.755000 2.191496
vt 0.716323 3.786440
vt 0.594156 3.812671
vt 0.491616 3.764120
vt 0.521889 2.194332
vt 0.977027 0.347702
vt 0.910596 0.414356
vt 0.813446 0.377348
vt 0.374177 3.764327
vt 0.407776 2.190436
vt 0.782849 0.117235
vt 0.828885 0.010085
vt 0.906404 0.022162
vt 0.418009 1.087501
vt 0.671546 1.113723
vt 0.636122 2.211387
vt 0.761902 1.106045
vt 0.162766 1.083227
vt 0.041207 2.180965
vt 0.299985 1.093107
vt 0.306845 0.052655
vt 0.553733 1.114237
vt 0.437505 0.055467
vt 0.644109 0.046349
vt 0.761914 0.016624
vt 0.191456 0.047622
vt 0.034180 1.098433
vt 0.801671 0.277241
vt 0.893456 0.206392
vt 0.991898 0.256101
vt 0.994691 0.106720
vt 0.945875 0.199835
vt 0.840129 0.212274
vt 0.520824 0.049917
vt 0.078720 0.018312
vn 0.306709 -0.025341 -0.951466
vn 0.992287 -0.118372 -0.036815
vn 0.409754 -0.050844 0.910778
vn -0.502019 0.072761 0.861791
vn 0.154324 0.987833 0.019211
vn -0.353071 0.064909 -0.933342
vn -0.988828 0.139342 -0.052953
vn 0.027798 -0.998917 -0.037325
vn -0.965363 -0.259905 0.022865
vn -0.401890 -0.142112 0.904593
vn 0.498324 0.127860 0.857511
vn 0.966224 0.254536 0.040283
vn 0.455055 0.122234 -0.882034
vn -0.498761 -0.124630 -0.857732
vn -0.544255 -0.016670 -0.838754
vn -0.995487 -0.013705 -0.093900
vn -0.112645 0.037250 0.992937
vn 0.100031 -0.004613 0.994974
vn 0.977559 -0.007104 0.210544
vn 0.470015 -0.008899 -0.882614
vn 0.448490 -0.055150 -0.892085
vn 0.991364 -0.124032 0.042587
vn 0.482687 -0.053854 0.874135
vn -0.436050 0.059401 0.897960
vn -0.222524 0.947168 -0.230989
vn -0.523144 0.074602 -0.848973
vn -0.990756 0.134720 0.015893
vn 0.280378 0.937698 -0.205208
vn -0.203558 0.972774 0.110795
vn -0.026265 -0.999655 0.000915
vn -0.059828 -0.974920 -0.214361
vn -0.196547 -0.972893 0.121853
vn -0.103829 -0.031433 0.994098
vn -0.966616 -0.251618 -0.048387
vn 0.100515 -0.015825 0.994810
vn 0.955470 0.236310 0.176732
vn 0.460178 0.124312 -0.879081
vn -0.522619 -0.134276 -0.841926
vn -0.678881 -0.036299 -0.733351
vn -0.981076 -0.005018 -0.193557
vn -0.431716 -0.004658 0.901997
vn 0.489257 0.038320 0.871298
vn 0.998837 0.022301 -0.042759
vn 0.517569 -0.001858 -0.855639
s off
f 13/1/1 2/2/1 4/3/1
f 14/4/2 4/3/2 6/5/2
f 15/6/3 6/7/3 8/8/3
f 8/8/4 10/9/4 17/10/4
f 2/11/5 12/12/5 10/13/5
f 12/14/6 2/2/6 13/1/6
f 10/9/7 12/14/7 18/15/7
f 7/16/8 9/17/8 11/18/8
f 17/10/9 18/15/9 23/19/9
f 21/20/10 16/21/10 17/10/10
f 20/22/11 15/6/11 16/21/11
f 19/23/12 14/4/12 15/24/12
f 13/1/13 14/4/13 19/23/13
f 18/15/14 13/1/14 24/25/14
f 23/19/15 24/25/15 1/26/15
f 22/27/16 23/19/16 11/28/16
f 7/29/17 21/20/17 22/27/17
f 5/30/18 20/22/18 21/20/18
f 3/31/19 19/23/19 20/32/19
f 24/25/20 19/23/20 3/31/20
f 14/4/21 13/1/21 4/3/21
f 15/24/22 14/4/22 6/5/22
f 16/21/23 15/6/23 8/8/23
f 16/21/24 8/8/24 17/10/24
f 2/11/25 10/13/25 8/33/25
f 18/15/26 12/14/26 13/1/26
f 17/10/27 10/9/27 18/15/27
f 6/34/28 2/11/28 8/33/28
f 6/34/29 4/35/29 2/11/29
f 11/18/30 1/36/30 3/37/30
f 11/18/31 3/37/31 5/38/31
f 5/38/32 7/16/32 11/18/32
f 22/27/33 21/20/33 17/10/33
f 22/27/34 17/10/34 23/19/34
f 21/20/35 20/22/35 16/21/35
f 20/32/36 19/23/36 15/24/36
f 24/25/37 13/1/37 19/23/37
f 23/19/38 18/15/38 24/25/38
f 11/28/39 23/19/39 1/26/39
f 9/39/40 22/27/40 11/28/40
f 9/39/41 7/29/41 22/27/41
f 7/29/42 5/30/42 21/20/42
f 5/40/43 3/31/43 20/32/43
f 1/26/44 24/25/44 3/31/44
