o TrayArm
v 0.693121 -0.074474 -0.043005
v -0.693120 -0.074474 -0.043005
v -0.693121 0.000000 -0.086002
v 0.693121 -0.074474 0.042990
v -0.693120 -0.074474 0.042990
v 0.693121 -0.000000 0.085986
v -0.693121 -0.000000 0.085986
v 0.693120 0.074474 0.042990
v -0.693121 0.074474 0.042990
v -0.693121 0.074474 -0.043005
v 0.693121 0.000000 -0.086002
v 0.693120 0.074474 -0.043005
v 0.120926 -0.532977 -0.369935
v 0.330375 -0.532977 -0.170480
v 0.375186 -0.662467 -0.375185
v 0.451301 -0.532977 -0.170481
v 0.512513 -0.662467 -0.137327
v 0.676301 -0.090576 -0.109389
v 0.676301 -0.090576 0.109392
v 0.375186 -0.662467 0.375187
v 0.512513 -0.662467 0.137329
v 0.330375 -0.532977 0.170482
v 0.120926 -0.532977 0.369937
v 0.137328 -0.662467 0.512514
v 0.451301 -0.532977 0.170482
v -0.120926 -0.532977 0.369937
v -0.330375 -0.532977 0.170482
v -0.375186 -0.662467 0.375187
v -0.451301 -0.532977 0.170484
v -0.512513 -0.662467 0.137329
v -0.330375 -0.532977 -0.170480
v -0.555375 -0.090576 -0.109389
v -0.451302 -0.532977 -0.170480
v -0.676302 -0.090576 -0.109389
v -0.375186 -0.662467 -0.375185
v -0.120926 -0.532977 -0.369935
v -0.512513 -0.662467 -0.137325
v 0.137328 -0.662467 -0.512511
v -0.676301 -0.090576 0.109392
v -0.555375 -0.090576 0.109392
v -0.555375 0.149186 0.057623
v -0.676301 0.149186 0.057623
v 0.555375 0.149186 -0.057619
v 0.555375 0.149186 0.057623
v 0.676301 0.149186 0.057623
v 0.555375 -0.090576 0.109392
v 0.555375 -0.090576 -0.109389
v -0.676302 0.149186 -0.057619
v 0.676301 0.149186 -0.057619
v -0.555375 0.149186 -0.057619
v -0.137326 -0.662467 0.512514
v -0.137328 -0.662467 -0.512511
v -0.297420 -0.532977 -0.153474
v -0.108863 -0.532977 -0.333032
v -0.108863 -0.505490 -0.333032
v 0.108863 -0.505490 -0.333032
v 0.108863 -0.532977 -0.333032
v 0.297418 -0.505490 -0.153474
v 0.297420 -0.532977 0.153477
v 0.297420 -0.505490 0.153477
v 0.108863 -0.505490 0.333034
v 0.108863 -0.532977 0.333034
v -0.108863 -0.505490 0.333034
v -0.108863 -0.532977 0.333034
v -0.297418 -0.505490 0.153477
v -0.297420 -0.505490 -0.153474
v 0.297418 -0.532977 -0.153474
v -0.297418 -0.532977 0.153477
v -0.202049 -0.464964 0.104263
v 0.073955 -0.464964 -0.226241
v -0.073955 -0.464964 -0.226241
v -0.202049 -0.464964 -0.104261
v 0.202049 -0.464964 -0.104261
v 0.202049 -0.464964 0.104263
v -0.073955 -0.464964 0.226243
v 0.073955 -0.464964 0.226243
vt 0.079032 0.546663
vt 0.079033 0.836004
vt 0.096981 0.836004
vt 0.061082 0.546663
vt 0.061083 0.836004
vt 0.043134 0.546664
vt 0.043134 0.836004
vt 0.025185 0.546664
vt 0.025185 0.836005
vt 0.906206 0.065405
vt 0.844898 0.065405
vt 0.814245 0.118499
vt 0.096981 0.546663
vt 0.114931 0.836004
vt 0.007236 0.546664
vt 0.007236 0.836005
vt 0.906206 0.171592
vt 0.844899 0.171592
vt 0.936859 0.118497
vt 0.842123 0.936023
vt 0.921485 0.860448
vt 0.938464 0.938012
vt 0.599463 0.851176
vt 0.576878 0.930800
vt 0.650710 0.995291
vt 0.754020 0.497951
vt 0.797572 0.182553
vt 0.953546 0.182552
vt 0.938464 0.653689
vt 0.990499 0.743816
vt 0.921485 0.731253
vt 0.842123 0.655678
vt 0.848337 0.601654
vt 0.997101 0.497950
vt 0.973465 0.590267
vt 0.750483 0.655678
vt 0.671120 0.731253
vt 0.654141 0.653689
vt 0.243553 0.996327
vt 0.654141 0.938012
vt 0.671120 0.860448
vt 0.750483 0.936023
vt 0.777657 0.590268
vt 0.848337 0.990047
vt 0.266138 0.916703
vt 0.108265 0.871923
vt 0.085680 0.951548
vt 0.024977 0.848299
vt 0.002392 0.927924
vt 0.916638 0.011620
vt 0.834479 0.011621
vt 0.797571 0.182553
vt 0.990499 0.847885
vt 0.744268 0.601654
vt 0.602106 0.743816
vt 0.744268 0.990047
vt 0.602106 0.847885
vt 0.683607 0.854004
vt 0.755053 0.922040
vt 0.837552 0.922040
vt 0.908998 0.854004
vt 0.908998 0.737697
vt 0.837552 0.669661
vt 0.755053 0.669661
vt 0.683608 0.737697
vt 0.719744 0.756345
vt 0.824325 0.881576
vt 0.768280 0.881576
vt 0.719744 0.835356
vt 0.872861 0.835356
vt 0.872861 0.756345
vt 0.768280 0.710125
vt 0.824325 0.710125
vt 0.844899 0.171593
vt 0.936859 0.118498
vt 0.114931 0.546663
vt 0.844898 0.065404
vt 0.814245 0.118498
vt 0.906206 0.065404
vt 0.002392 0.927923
vn 0.000000 -0.500002 -0.866024
vn 0.000000 -1.000000 0.000000
vn 0.000000 -0.499989 0.866032
vn 0.000000 0.499989 0.866032
vn -1.000000 -0.000001 0.000000
vn 0.000000 0.500002 -0.866024
vn 0.000000 1.000000 0.000000
vn 1.000000 0.000002 0.000000
vn 0.403987 0.810446 -0.424230
vn -0.000012 -0.248042 -0.968749
vn 0.891344 -0.453327 0.000000
vn 0.585427 0.736909 0.337994
vn 0.516497 0.662614 0.542378
vn 0.904077 0.427370 0.000000
vn -0.403987 0.810446 0.424230
vn 0.000012 -0.248042 0.968749
vn 0.891344 0.453327 0.000000
vn 0.000000 0.136790 -0.990600
vn -0.403987 0.810446 -0.424230
vn 0.000000 -0.248037 -0.968751
vn -0.904080 0.427362 0.000004
vn 0.000000 0.740261 -0.672319
vn -0.891345 -0.453326 0.000006
vn 0.000000 0.211057 0.977474
vn -1.000000 0.000002 0.000013
vn 0.000000 0.136790 0.990600
vn -1.000000 -0.000000 0.000000
vn 1.000000 0.000000 0.000000
vn 0.000000 0.211057 -0.977474
vn -0.891344 0.453327 0.000000
vn 0.350581 0.713000 -0.607227
vn 0.585427 0.736909 -0.337994
vn 0.272042 0.839029 0.471194
vn -0.350580 0.712998 0.607229
vn -0.585427 0.736909 0.337994
vn -0.350581 0.713000 -0.607227
vn -0.585429 0.736908 -0.337993
vn 0.000000 0.740262 0.672319
vn 0.000000 -0.248026 0.968753
vn 0.000000 0.000000 -1.000000
vn 0.689617 0.000000 -0.724174
vn 0.689614 0.000000 0.724177
vn 0.000000 0.000000 1.000000
vn -0.689617 0.000000 0.724174
vn -0.689614 0.000000 -0.724177
vn 1.000000 0.000000 -0.000005
vn -1.000000 0.000002 0.000005
vn -0.391085 0.920355 0.000002
vn 0.000000 1.000000 -0.000001
vn 0.391086 0.920354 0.000000
vn -0.255909 0.928597 -0.268736
vn -0.255909 0.928597 0.268736
vn 0.000000 0.934944 0.354796
vn 0.255909 0.928597 0.268736
vn 0.255909 0.928597 -0.268735
vn 0.000000 0.934944 -0.354796
vn -1.000000 -0.000009 0.000000
vn -1.000000 -0.000010 -0.000017
vn -1.000000 -0.000015 0.000009
vn 1.000000 0.000020 0.000000
vn 0.000000 0.136791 -0.990600
vn -0.904077 0.427370 0.000000
vn 0.000000 0.740262 -0.672319
vn -0.891344 -0.453328 0.000004
vn -0.000012 0.136800 -0.990599
vn -1.000000 -0.000001 0.000007
vn 0.000013 0.136800 0.990599
vn 0.689615 0.000000 -0.724176
vn 0.689612 0.000000 0.724179
vn -0.689615 0.000000 0.724176
vn -0.689612 0.000000 -0.724179
vn -1.000000 -0.000002 0.000005
vn -0.391080 0.920357 0.000000
vn -0.255909 0.928597 -0.268735
vn 0.391081 0.920356 -0.000002
vn 0.000000 1.000000 0.000001
vn -0.255912 0.928595 0.268737
vn 0.255912 0.928596 -0.268737
s off
f 1/1/1 2/2/1 3/3/1
f 4/4/2 5/5/2 2/2/2
f 6/6/3 7/7/3 5/5/3
f 8/8/4 9/9/4 7/7/4
f 9/10/5 10/11/5 3/12/5
f 11/13/6 3/3/6 10/14/6
f 12/15/7 10/16/7 9/9/7
f 4/17/8 1/18/8 6/19/8
f 13/20/9 14/21/9 15/22/9
f 14/23/10 16/24/10 17/25/10
f 16/26/11 18/27/11 19/28/11
f 20/29/12 21/30/12 22/31/12
f 22/31/13 23/32/13 24/33/13
f 16/26/14 25/34/14 21/35/14
f 26/36/15 27/37/15 28/38/15
f 27/23/16 29/24/16 30/25/16
f 27/34/17 31/26/17 32/27/17
f 31/23/18 33/24/18 34/39/18
f 35/40/19 31/41/19 36/42/19
f 37/25/20 33/24/20 31/23/20
f 29/34/21 33/26/21 37/43/21
f 36/42/22 13/20/22 38/44/22
f 29/34/23 39/28/23 34/27/23
f 40/45/24 41/46/24 42/47/24
f 43/48/7 44/49/7 45/47/7
f 46/45/24 19/39/24 45/47/24
f 14/23/18 47/45/18 18/39/18
f 39/28/25 42/50/25 48/51/25
f 27/23/26 40/45/26 39/39/26
f 47/52/27 46/28/27 44/50/27
f 18/27/28 49/51/28 45/50/28
f 40/28/28 32/27/28 50/51/28
f 41/47/7 50/46/7 48/48/7
f 32/45/29 34/39/29 48/47/29
f 14/26/30 22/34/30 46/28/30
f 22/23/26 25/24/26 19/39/26
f 38/44/31 13/20/31 15/22/31
f 15/22/32 14/21/32 17/53/32
f 20/29/33 22/31/33 24/33/33
f 51/54/34 26/36/34 28/38/34
f 28/38/35 27/37/35 30/55/35
f 52/56/36 35/40/36 36/42/36
f 35/40/37 37/57/37 31/41/37
f 47/45/29 43/46/29 49/47/29
f 24/33/38 23/32/38 26/36/38
f 21/25/39 25/24/39 22/23/39
f 53/58/7 31/41/7 27/37/7
f 54/59/40 55/59/40 56/60/40
f 57/60/41 56/60/41 58/61/41
f 59/62/42 60/62/42 61/63/42
f 62/63/43 61/63/43 63/64/43
f 64/64/44 63/64/44 65/65/44
f 53/58/45 66/58/45 55/59/45
f 67/61/46 58/61/46 60/62/46
f 68/65/47 65/65/47 66/58/47
f 66/58/48 65/65/48 69/66/48
f 70/67/49 71/68/49 72/69/49
f 58/61/50 73/70/50 74/71/50
f 55/59/51 66/58/51 72/69/51
f 63/64/52 75/72/52 69/66/52
f 61/63/53 76/73/53 75/72/53
f 61/63/54 60/62/54 74/71/54
f 56/60/55 70/67/55 73/70/55
f 55/59/56 71/68/56 70/67/56
f 22/31/7 59/62/7 62/63/7
f 11/13/1 1/1/1 3/3/1
f 1/1/2 4/4/2 2/2/2
f 4/4/3 6/6/3 5/5/3
f 6/6/4 8/8/4 7/7/4
f 5/17/57 9/10/57 2/74/57
f 5/17/58 7/75/58 9/10/58
f 12/76/6 11/13/6 10/14/6
f 8/8/7 12/15/7 9/9/7
f 9/10/59 3/12/59 2/74/59
f 12/77/60 6/19/60 11/78/60
f 12/77/60 8/79/60 6/19/60
f 25/34/11 16/26/11 19/28/11
f 17/43/14 16/26/14 21/35/14
f 6/19/28 1/18/28 11/78/28
f 40/28/17 27/34/17 32/27/17
f 32/45/61 31/23/61 34/39/61
f 30/35/62 29/34/62 37/43/62
f 52/56/63 36/42/63 38/44/63
f 33/26/64 29/34/64 34/27/64
f 39/39/24 40/45/24 42/47/24
f 49/46/7 43/48/7 45/47/7
f 44/46/24 46/45/24 45/47/24
f 16/24/65 14/23/65 18/39/65
f 34/27/66 39/28/66 48/51/66
f 29/24/67 27/23/67 39/39/67
f 43/51/27 47/52/27 44/50/27
f 19/28/28 18/27/28 45/50/28
f 41/50/28 40/28/28 50/51/28
f 42/80/7 41/47/7 48/48/7
f 50/46/29 32/45/29 48/47/29
f 47/52/30 14/26/30 46/28/30
f 46/45/26 22/23/26 19/39/26
f 18/39/29 47/45/29 49/47/29
f 51/54/38 24/33/38 26/36/38
f 54/59/7 36/42/7 31/41/7
f 68/65/7 53/58/7 27/37/7
f 53/58/7 54/59/7 31/41/7
f 67/61/68 57/60/68 58/61/68
f 57/60/40 54/59/40 56/60/40
f 62/63/69 59/62/69 61/63/69
f 64/64/43 62/63/43 63/64/43
f 68/65/70 64/64/70 65/65/70
f 54/59/71 53/58/71 55/59/71
f 59/62/46 67/61/46 60/62/46
f 53/58/72 68/65/72 66/58/72
f 72/69/73 66/58/73 69/66/73
f 71/68/74 55/59/74 72/69/74
f 74/71/7 69/66/7 76/73/7
f 70/67/7 72/69/7 73/70/7
f 60/62/75 58/61/75 74/71/75
f 69/66/76 75/72/76 76/73/76
f 73/70/7 72/69/7 69/66/7
f 74/71/7 73/70/7 69/66/7
f 65/65/77 63/64/77 69/66/77
f 63/64/53 61/63/53 75/72/53
f 76/73/54 61/63/54 74/71/54
f 58/61/78 56/60/78 73/70/78
f 56/60/56 55/59/56 70/67/56
f 13/20/7 36/42/7 54/59/7
f 64/64/7 68/65/7 27/37/7
f 13/20/7 54/59/7 57/60/7
f 64/64/7 27/37/7 26/36/7
f 14/21/7 13/20/7 57/60/7
f 26/36/7 23/32/7 64/64/7
f 14/21/7 57/60/7 67/61/7
f 22/31/7 14/21/7 67/61/7
f 23/32/7 22/31/7 62/63/7
f 22/31/7 67/61/7 59/62/7
f 23/32/7 62/63/7 64/64/7
