# Blender v2.76 (sub 0) OBJ File: ''
# www.blender.org
mtllib s.mtl
o b2spirit.001
v -1.710061 0.454429 -1.736849
v -1.908492 0.395667 -1.736849
v -1.500604 0.395667 -1.736849
v -1.757537 0.104894 -2.073740
v -1.445844 0.264357 -1.928931
v -2.006753 0.249504 -1.893203
v 1.914780 0.395667 -1.736849
v 1.716348 0.454429 -1.736849
v 1.506893 0.395667 -1.736849
v 1.763825 0.104894 -2.073740
v 1.452132 0.264357 -1.928931
v 2.013042 0.249504 -1.893203
v -1.713435 0.412229 -3.088108
v -1.853583 0.370727 -3.088108
v -1.565499 0.370727 -3.088108
v -1.746966 0.165359 -3.326048
v -1.526823 0.277984 -3.223772
v -1.922983 0.267494 -3.198538
v 1.859872 0.370727 -3.088108
v 1.719722 0.412229 -3.088108
v 1.571788 0.370727 -3.088108
v 1.753255 0.165359 -3.326047
v 1.533112 0.277984 -3.223772
v 1.929272 0.267494 -3.198538
vt 0.625000 0.000000
vt 0.750000 0.000000
vt 0.750000 1.000000
vt 1.000000 1.000000
vt 1.000000 0.000000
vt -0.000000 1.000000
vt -0.000000 0.000000
vt 0.187500 0.000000
vt 0.500000 1.000000
vt 0.500000 0.000000
vt 0.312500 0.000000
vt 0.187500 1.000000
vt 0.625000 1.000000
vt 0.312500 1.000000
vn -0.893000 0.447200 -0.051100
vn 0.469300 -0.882200 -0.038600
vn 0.525800 -0.849400 -0.045400
vn -0.270000 0.962400 -0.030700
vn -0.806900 0.589100 -0.043700
vn 0.283800 0.958400 -0.029200
vn 0.806900 0.589100 -0.043700
vn -0.283800 0.958400 -0.029200
vn -0.525800 -0.849400 -0.045400
vn 0.893000 0.447200 -0.051100
vn -0.469300 -0.882200 -0.038600
vn 0.270000 0.962400 -0.030700
usemtl None
s off
f 21/1/1 23/2/1 11/3/1
f 4/4/2 16/5/2 17/2/2
f 10/6/3 22/7/3 24/8/3
f 8/9/4 20/10/4 21/1/4
f 14/11/5 18/8/5 6/12/5
f 19/11/6 20/10/6 8/9/6
f 12/12/7 24/8/7 19/11/7
f 1/9/8 13/10/8 14/11/8
f 18/8/9 16/7/9 4/6/9
f 5/3/10 17/2/10 15/1/10
f 23/2/11 22/5/11 10/4/11
f 15/1/12 13/10/12 1/9/12
f 9/13/1 21/1/1 11/3/1
f 5/3/2 4/4/2 17/2/2
f 12/12/3 10/6/3 24/8/3
f 9/13/4 8/9/4 21/1/4
f 2/14/5 14/11/5 6/12/5
f 7/14/6 19/11/6 8/9/6
f 7/14/7 12/12/7 19/11/7
f 2/14/8 1/9/8 14/11/8
f 6/12/9 18/8/9 4/6/9
f 3/13/10 5/3/10 15/1/10
f 11/3/11 23/2/11 10/4/11
f 3/13/12 15/1/12 1/9/12
