# Blender v2.75 (sub 0) OBJ File: ''
# www.blender.org
v 4.987897 -7.781244 0.283272
v 4.970257 -7.184477 1.225089
v 4.969693 -7.860690 1.228950
v 2.399408 -7.860870 1.228862
v 4.967312 -6.677167 0.865995
v 4.967422 -6.676984 0.196450
v 3.330683 -7.799898 0.191029
v 3.684564 -7.934330 -1.141985
v 3.082261 -8.074225 -1.932244
v 2.381231 -7.781244 0.283271
v 2.411067 -8.329706 0.852674
v 3.336018 -7.192528 -0.178444
v 2.655674 -8.073840 -1.931259
v 4.713455 -8.073840 -1.931259
v 4.286867 -8.074225 -1.932244
v 4.033110 -7.192528 -0.178444
v 2.399041 -7.184462 1.229102
v 2.401794 -6.677094 0.865821
v 2.401706 -6.676984 0.196450
v 4.038445 -7.799897 0.191029
v 4.239285 -0.874446 -0.942283
v 3.064155 -0.866673 -0.943550
v 1.943809 -0.860588 0.685626
v 3.888976 0.726436 0.726437
v 3.073116 0.726436 0.726437
v 3.072323 0.003607 1.026607
v 3.888976 1.027341 -0.000001
v 3.073116 1.027341 -0.000001
v 3.888976 0.726444 -0.726444
v 3.073116 0.726444 -0.726444
v 3.889791 0.003705 -1.026582
v 3.072301 0.003705 -1.026582
v 3.880220 -3.180207 -0.004467
v 3.081872 -3.180207 -0.004467
v 3.889769 0.003607 1.026607
v 1.929358 -4.132401 3.898526
v 1.914395 -4.346838 0.237849
v 1.925455 -6.621557 0.257951
v 4.281013 -2.179008 -0.325242
v 5.904842 -2.142261 0.828257
v 5.904907 -4.143893 0.832230
v 1.097069 -3.259279 0.833820
v 1.092207 -2.921152 2.752567
v 1.097508 -2.142395 0.828363
v 4.232745 -4.105815 3.917807
v 5.086226 -5.211998 3.327669
v 5.904552 -4.143851 2.764762
v 1.951929 0.841349 3.870108
v 1.090630 -1.212622 2.741373
v 4.168252 -7.138204 4.524608
v 4.172241 -5.520503 4.558710
v 2.974632 -5.522432 4.565543
v 4.246720 -1.441950 -0.961348
v 2.745481 -1.428946 -0.959816
v 2.965385 -7.140334 4.525142
v 3.206821 -6.579362 -0.122269
v 3.192089 -7.158528 -0.103518
v 3.177529 -6.579362 3.227449
v 2.769734 -6.839141 -0.331233
v 5.074235 -6.637143 3.300507
v 2.713839 -2.178968 -0.325156
v 5.054243 0.145171 2.706827
v 5.051148 -0.859925 0.686947
v 5.079988 -5.216795 0.237135
v 4.229175 0.846642 3.873621
v 5.906723 -1.209579 2.757942
v 4.225180 -6.839141 -0.331233
v 5.069459 -6.621557 0.257951
v 1.922137 -6.639432 3.298630
v 1.575485 -7.769958 0.281080
v 1.588218 -8.367188 0.839931
v 3.684564 -8.432813 -1.128780
v 3.929837 -8.370802 -1.927142
v 5.074574 -8.366414 -1.923425
v 5.793643 -7.769958 0.281080
v 5.780910 -8.367188 0.839931
v 2.294554 -8.366414 -1.923425
v 3.439291 -8.370802 -1.927142
v 4.958062 -8.329706 0.852673
v 2.386663 -7.162130 -0.145420
v 4.170468 -7.189471 -0.104677
v 4.162306 -6.579362 -0.122269
v 4.182141 -7.200974 3.227449
v 4.191599 -6.579362 3.227449
v 3.235085 -7.926511 3.227448
v 3.226866 -7.922180 0.371881
v 4.982465 -7.162130 -0.145420
v 4.987897 -7.781245 3.475443
v 4.969693 -7.860691 2.529764
v 4.970257 -7.184477 2.533626
v 2.399408 -7.860871 2.529853
v 4.967312 -6.677168 2.892719
v 4.967422 -6.676985 3.562265
v 3.330683 -7.799899 3.567686
v 3.082261 -8.074226 5.690959
v 3.684564 -7.934331 4.900701
v 2.381231 -7.781245 3.475444
v 2.411067 -8.329706 2.906040
v 3.336018 -7.192528 3.937159
v 2.655674 -8.073841 5.689974
v 4.713455 -8.073841 5.689974
v 4.033110 -7.192528 3.937159
v 4.286867 -8.074226 5.690959
v 2.399041 -7.184462 2.529613
v 2.401706 -6.676985 3.562265
v 2.401794 -6.677094 2.892893
v 4.038445 -7.799898 3.567686
v 1.575485 -7.769959 3.477635
v 1.588218 -8.367188 2.918783
v 3.684564 -8.432814 4.887495
v 5.074574 -8.366415 5.682139
v 3.929837 -8.370803 5.685857
v 5.793643 -7.769959 3.477635
v 5.780910 -8.367188 2.918783
v 2.294554 -8.366415 5.682139
v 3.439291 -8.370803 5.685857
v 4.958062 -8.329706 2.906041
v 2.386663 -7.162131 3.904136
v 4.982465 -7.162131 3.904136
vt -0.382592 -0.952112
vt -0.377282 -0.761900
vt -0.468974 -0.822698
vt -0.945890 -0.602270
vt -0.945668 -1.029914
vt -0.835646 -1.029860
vt -0.278630 -0.764396
vt -0.220556 -0.851402
vt -1.633573 -1.187444
vt -1.916468 -1.136438
vt -2.018018 -1.290896
vt -0.503882 -0.927806
vt -0.151220 -1.291754
vt -0.112753 -0.944912
vt 0.014320 -0.953516
vt -0.219422 -1.291502
vt -1.542428 -1.187444
vt -1.542428 -1.085432
vt 2.868778 -0.853388
vt 2.867843 -0.659138
vt 2.586749 -0.469508
vt 0.463234 0.663418
vt 0.402838 0.663418
vt 0.402838 0.599782
vt 0.463234 0.727060
vt 0.402838 0.727060
vt 0.463234 0.790702
vt 0.402838 0.790702
vt 0.463234 0.854344
vt 0.402838 0.854344
vt 0.463234 1.137778
vt 0.402838 1.137778
vt 0.463234 0.599782
vt 0.402838 0.316114
vt 1.072984 -0.433226
vt 1.023167 0.184504
vt 0.633442 0.175942
vt 1.405648 0.860950
vt 1.328393 1.199374
vt 0.993443 1.122340
vt 1.265728 0.091336
vt 1.324606 -0.233282
vt 1.454368 0.091792
vt 1.095887 -0.943034
vt 0.899410 -1.104602
vt 1.082140 -1.285388
vt 1.967560 -0.471584
vt 1.616729 -0.232574
vt 0.573142 -0.848114
vt 0.840358 -0.847376
vt 0.839813 -0.648938
vt 1.639001 0.796924
vt 1.552018 0.786916
vt 1.580038 0.543376
vt 1.112987 -0.858314
vt 0.572597 -0.649676
vt 1.085986 -0.439976
vt -0.656306 -1.080812
vt -0.656306 -1.131518
vt -0.369218 -1.080812
vt 0.920650 1.438834
vt 0.647476 0.436012
vt 0.682859 0.264316
vt 1.072684 0.265264
vt 0.659315 -1.105268
vt 1.606174 0.499132
vt 1.453631 0.437944
vt 2.197738 -0.996716
vt 2.589287 -0.994826
vt 0.784372 0.970306
vt 1.110623 -0.473084
vt 1.968706 -0.856820
vt 1.678972 1.592536
vt 1.413059 1.552084
vt 1.586956 1.211944
vt 1.825252 1.816930
vt 1.568789 0.836164
vt 1.708385 0.137776
vt 1.682261 0.461974
vt 0.667019 1.480552
vt 0.433025 1.426732
vt 1.635304 0.890314
vt 0.620056 0.680002
vt 0.108202 0.166882
vt 0.491554 0.278830
vt 0.272956 -0.578702
vt 0.471364 -0.575252
vt 0.642509 -0.347552
vt 0.117299 -0.356612
vt -0.632546 -1.029938
vt -0.632384 -0.602288
vt -0.737156 -1.029896
vt -0.880057 -0.390428
vt -1.003759 -0.390308
vt -1.003892 -0.532862
vt -1.385024 -0.819278
vt -1.515302 -0.871910
vt -1.515302 -1.051748
vt -0.880196 -0.532976
vt -1.515302 -0.586814
vt -1.515302 -0.766646
vt -1.161752 -0.397754
vt -1.056595 -0.462908
vt -0.505496 -0.570506
vt -1.161752 -1.240802
vt -1.056595 -1.175654
vt -1.987844 -1.136438
vt -2.042623 -1.024082
vt -0.835867 -0.602210
vt -0.736994 -0.602246
vt -2.018018 -0.981980
vt -1.633573 -1.085432
vt -0.255301 -0.944630
vt -0.495842 -0.504968
vt -1.550978 -0.642626
vt -1.550978 -0.710834
vt -1.550978 -0.927722
vt -1.550978 -0.995930
vt -2.042623 -1.248794
vt -1.056638 -0.602330
vt -1.056416 -1.029974
vt 0.463234 0.316114
vt 0.847768 0.908782
vt 0.616253 0.855538
vt 2.003536 -0.406376
vt 1.619081 -1.199708
vt 1.113821 -1.200938
vt 1.661201 0.603946
vt 0.651742 -0.375968
vt -0.727561 -1.131542
vt -0.727580 -1.080836
vt -1.014650 -1.131638
vt 1.715182 0.926152
vt 1.783331 0.468466
vt 0.552850 0.917056
vt 0.246437 0.274576
vt -1.014668 -1.080932
vt -1.014620 -1.224368
vt -0.764600 -1.224278
vt -0.619232 -1.190828
vt -0.369218 -1.190828
vt -0.056815 0.804490
vt -0.324488 0.710938
vt -0.050396 0.638314
vt 0.002879 0.782422
vt 0.029482 0.724612
vt 0.007414 0.664918
vt -0.533054 -1.029974
vt -0.532886 -0.602330
vn 0.815500 0.552700 0.171600
vn 0.641800 0.237200 0.729300
vn 0.634300 -0.257900 0.728800
vn -0.634600 -0.259600 0.727900
vn 0.614700 0.701000 0.361700
vn 0.609100 0.707100 -0.359300
vn 0.525700 0.366100 -0.767900
vn -0.000000 0.953800 -0.300300
vn 0.190500 0.559200 -0.806800
vn -0.810600 0.561500 0.166100
vn -0.536000 0.013900 0.844100
vn 0.595200 0.138700 -0.791500
vn -0.227300 0.561900 -0.795300
vn 0.227300 0.561900 -0.795300
vn -0.190500 0.559200 -0.806800
vn -0.595200 0.138700 -0.791500
vn -0.640000 0.237300 0.730800
vn -0.615000 0.701600 0.359900
vn -0.609100 0.707000 -0.359300
vn -0.525700 0.366100 -0.767900
vn 0.415600 0.615400 -0.669800
vn -0.236600 0.693600 -0.680400
vn -0.535700 0.745500 -0.396600
vn 0.629800 0.549700 0.548800
vn -0.629800 0.549700 0.548800
vn -0.637300 0.030400 0.770000
vn 0.630000 0.776600 0.000000
vn -0.630000 0.776600 0.000000
vn 0.629800 0.549700 -0.548800
vn -0.629800 0.549700 -0.548800
vn 0.637600 0.031400 -0.769800
vn -0.637600 0.031400 -0.769800
vn 0.541800 -0.840500 -0.001100
vn -0.541800 -0.840500 -0.001100
vn 0.637300 0.030400 0.770000
vn -0.682400 -0.036000 0.730100
vn -0.826500 -0.123000 -0.549400
vn -0.719000 -0.605000 -0.342000
vn 0.819300 -0.214700 -0.531600
vn 0.892100 0.155900 -0.424000
vn 0.893100 -0.237900 -0.381800
vn -0.897000 -0.248500 -0.365500
vn -0.944600 -0.184700 0.271200
vn -0.892300 0.153500 -0.424500
vn 0.351300 0.152700 0.923700
vn 0.885500 -0.083500 0.457100
vn 0.889600 -0.237100 0.390400
vn -0.454800 0.768600 0.449900
vn -0.959600 0.227300 0.165700
vn 0.373800 -0.750200 0.545400
vn 0.416400 0.162800 0.894500
vn -0.231900 0.144300 0.962000
vn 0.489600 -0.050900 -0.870400
vn -0.514300 0.066800 -0.855000
vn -0.319500 -0.771700 0.549900
vn -0.691500 -0.004900 -0.722400
vn -0.855400 -0.021700 -0.517600
vn -0.999400 -0.035300 0.001800
vn -0.274100 -0.782800 -0.558600
vn 0.764300 -0.619000 0.180800
vn -0.821800 -0.211100 -0.529200
vn 0.562700 0.805200 -0.187400
vn 0.537000 0.750400 -0.385300
vn 0.818500 -0.128000 -0.560100
vn 0.313300 0.813300 0.490200
vn 0.909500 0.254200 0.328800
vn 0.272800 -0.783300 -0.558600
vn 0.717200 -0.607700 -0.341100
vn -0.752800 -0.637900 0.162100
vn -0.734500 0.663300 0.143300
vn -0.642600 -0.333600 0.689700
vn 0.000000 -0.986300 -0.165100
vn -0.554600 -0.380500 -0.740000
vn 0.621900 -0.348600 -0.701200
vn 0.731800 0.663600 0.155400
vn 0.639200 -0.324500 0.697200
vn -0.621900 -0.348600 -0.701200
vn 0.554600 -0.380500 -0.740000
vn 0.550600 0.023200 0.834400
vn -0.776800 0.443200 -0.447500
vn 0.788900 -0.327400 -0.520000
vn 0.696100 -0.013700 -0.717800
vn 0.894100 -0.447800 -0.006400
vn 0.999800 -0.015200 -0.008700
vn -0.421700 -0.906800 0.000100
vn -0.496500 -0.868000 -0.001500
vn 0.776800 0.443200 -0.447500
vn 0.815500 0.552700 -0.171600
vn 0.634300 -0.257900 -0.728800
vn 0.641800 0.237200 -0.729300
vn -0.634600 -0.259600 -0.727900
vn 0.614700 0.701000 -0.361700
vn 0.609100 0.707100 0.359300
vn 0.525700 0.366100 0.767900
vn 0.190500 0.559200 0.806800
vn -0.000000 0.953800 0.300300
vn -0.810600 0.561500 -0.166100
vn -0.536000 0.013900 -0.844100
vn 0.595200 0.138700 0.791500
vn -0.227300 0.561900 0.795300
vn 0.227300 0.561900 0.795300
vn -0.595200 0.138700 0.791500
vn -0.190500 0.559200 0.806800
vn -0.640000 0.237300 -0.730800
vn -0.609100 0.707000 0.359300
vn -0.615000 0.701600 -0.359900
vn -0.525700 0.366100 0.767900
vn -0.734500 0.663300 -0.143300
vn -0.642600 -0.333600 -0.689700
vn 0.000000 -0.986300 0.165100
vn 0.621900 -0.348600 0.701200
vn -0.554600 -0.380500 0.740000
vn 0.731800 0.663600 -0.155400
vn 0.639200 -0.324500 -0.697200
vn -0.621900 -0.348600 0.701200
vn 0.554600 -0.380500 0.740000
vn 0.550600 0.023200 -0.834400
vn -0.776800 0.443200 0.447500
vn 0.776800 0.443200 0.447500
s 1
f 1/1/1 2/2/2 3/3/3
f 4/4/4 3/5/3 2/6/2
f 5/7/5 2/2/2 6/8/6
f 7/9/7 8/10/8 9/11/9
f 10/1/10 11/12/11 4/3/4
f 9/13/9 12/14/12 7/15/7
f 12/14/12 9/13/9 13/16/13
f 14/16/14 15/13/15 16/14/16
f 17/2/17 18/7/18 19/8/19
f 7/9/7 12/17/12 16/18/16
f 16/14/16 15/13/15 20/15/20
f 21/19/21 22/20/22 23/21/23
f 24/22/24 25/23/25 26/24/26
f 27/25/27 28/26/28 25/23/25
f 29/27/29 30/28/30 28/26/28
f 31/29/31 32/30/32 30/28/30
f 31/29/31 33/31/33 34/32/34
f 35/33/35 26/24/26 34/34/34
f 36/35/36 37/36/37 38/37/38
f 39/38/39 40/39/40 41/40/41
f 42/41/42 43/42/43 44/43/44
f 45/44/45 46/45/46 47/46/47
f 48/47/48 49/48/49 43/42/43
f 50/49/50 51/50/51 52/51/52
f 21/52/21 53/53/53 54/54/54
f 51/50/51 45/55/45 52/51/52
f 45/44/45 51/50/51 46/45/46
f 55/56/55 52/51/52 36/57/36
f 42/41/42 37/36/37 36/35/36
f 56/58/56 57/59/57 58/60/58
f 41/40/41 40/39/40 47/61/47
f 59/62/59 38/63/38 37/64/37
f 46/45/46 51/50/51 60/65/60
f 54/66/54 61/67/61 44/43/44
f 62/68/62 63/69/63 23/21/23
f 64/70/64 41/40/41 47/61/47
f 36/71/36 45/55/45 65/72/65
f 62/73/62 66/74/66 63/75/63
f 62/73/62 65/76/65 66/74/66
f 39/38/39 53/77/53 40/39/40
f 44/43/44 23/78/23 54/79/54
f 44/43/44 49/48/49 23/78/23
f 64/70/64 46/80/46 60/81/60
f 40/39/40 53/82/53 63/75/63
f 59/62/59 54/54/54 53/53/53
f 39/38/39 67/83/67 53/53/53
f 61/67/61 54/54/54 59/62/59
f 68/84/68 38/37/38 59/85/59
f 50/86/50 55/87/55 69/88/69
f 38/37/38 68/84/68 60/89/60
f 6/90/6 19/91/19 5/92/5
f 45/55/45 36/71/36 52/51/52
f 70/93/70 71/94/71 11/95/11
f 72/96/72 73/97/73 74/98/74
f 75/93/75 1/99/1 76/94/76
f 77/100/77 78/101/78 72/96/72
f 70/102/70 77/100/77 71/103/71
f 14/104/14 1/99/1 75/93/75
f 79/12/79 1/1/1 3/3/3
f 75/105/75 76/106/76 74/98/74
f 72/107/72 8/10/8 73/108/73
f 70/93/70 10/99/10 13/104/13
f 17/109/17 2/6/2 18/110/18
f 73/108/73 8/10/8 15/111/15
f 15/111/15 8/10/8 20/112/20
f 80/113/80 13/16/13 10/1/10
f 77/114/77 70/93/70 13/104/13
f 14/104/14 75/93/75 74/114/74
f 77/100/77 13/115/13 9/116/9
f 15/117/15 14/118/14 74/98/74
f 78/101/78 77/100/77 9/116/9
f 8/10/8 72/107/72 78/119/78
f 8/10/8 7/9/7 20/112/20
f 8/10/8 78/119/78 9/11/9
f 15/117/15 74/98/74 73/97/73
f 19/91/19 18/110/18 5/92/5
f 4/4/4 11/120/11 79/121/79
f 79/121/79 3/5/3 4/4/4
f 20/112/20 7/9/7 16/18/16
f 2/6/2 5/92/5 18/110/18
f 80/113/80 12/14/12 13/16/13
f 63/69/63 21/19/21 23/21/23
f 32/30/32 31/29/31 34/32/34
f 35/33/35 24/22/24 26/24/26
f 24/22/24 27/25/27 25/23/25
f 27/25/27 29/27/29 28/26/28
f 29/27/29 31/29/31 30/28/30
f 33/122/33 35/33/35 34/34/34
f 69/88/69 36/35/36 38/37/38
f 64/123/64 68/124/68 67/83/67
f 64/123/64 39/38/39 41/40/41
f 64/123/64 67/83/67 39/38/39
f 49/48/49 48/125/48 23/78/23
f 66/126/66 65/72/65 45/55/45
f 66/126/66 45/55/45 47/127/47
f 55/56/55 50/49/50 52/51/52
f 36/71/36 48/47/48 43/42/43
f 22/128/22 21/52/21 54/54/54
f 43/42/43 49/48/49 44/43/44
f 69/129/69 55/56/55 36/57/36
f 43/42/43 42/41/42 36/35/36
f 81/130/81 82/131/82 83/132/83
f 51/50/51 50/49/50 60/65/60
f 44/43/44 61/67/61 42/41/42
f 65/72/65 62/68/62 48/47/48
f 61/67/61 59/62/59 37/64/37
f 61/67/61 37/64/37 42/41/42
f 46/80/46 64/70/64 47/61/47
f 48/47/48 36/71/36 65/72/65
f 62/68/62 23/21/23 48/47/48
f 40/39/40 66/74/66 47/61/47
f 53/82/53 21/133/21 63/75/63
f 23/78/23 22/134/22 54/79/54
f 68/135/68 64/70/64 60/81/60
f 66/74/66 40/39/40 63/75/63
f 67/83/67 59/62/59 53/53/53
f 67/136/67 68/84/68 59/85/59
f 60/89/60 50/86/50 69/88/69
f 69/88/69 38/37/38 60/89/60
f 82/131/82 84/137/84 83/132/83
f 56/58/56 81/130/81 57/59/57
f 82/131/82 81/130/81 56/58/56
f 85/138/85 86/139/86 83/132/83
f 86/139/86 81/130/81 83/132/83
f 57/59/57 86/140/86 85/141/85
f 58/60/58 57/59/57 85/141/85
f 17/109/17 4/4/4 2/6/2
f 14/16/14 87/113/87 1/1/1
f 10/1/10 4/3/4 17/2/17
f 35/142/35 33/143/33 31/144/31
f 30/145/30 32/142/32 28/146/28
f 28/146/28 32/142/32 26/144/26
f 31/144/31 29/147/29 27/146/27
f 25/147/25 28/146/28 26/144/26
f 24/145/24 35/142/35 27/146/27
f 35/142/35 31/144/31 27/146/27
f 32/142/32 34/143/34 26/144/26
f 6/90/6 87/148/87 19/91/19
f 87/113/87 2/2/2 1/1/1
f 2/2/2 87/113/87 6/8/6
f 87/113/87 14/16/14 16/14/16
f 71/103/71 77/100/77 72/96/72
f 1/99/1 79/95/79 76/94/76
f 72/96/72 74/98/74 76/106/76
f 71/103/71 72/96/72 76/106/76
f 10/99/10 70/93/70 11/95/11
f 80/113/80 17/2/17 19/8/19
f 80/113/80 10/1/10 17/2/17
f 87/148/87 80/149/80 19/91/19
f 88/1/88 89/3/89 90/2/90
f 91/4/91 90/6/90 89/5/89
f 92/7/92 93/8/93 90/2/90
f 94/9/94 95/11/95 96/10/96
f 97/1/97 91/3/91 98/12/98
f 95/13/95 94/15/94 99/14/99
f 99/14/99 100/16/100 95/13/95
f 101/16/101 102/14/102 103/13/103
f 104/2/104 105/8/105 106/7/106
f 94/9/94 102/18/102 99/17/99
f 102/14/102 107/15/107 103/13/103
f 93/90/93 92/92/92 105/91/105
f 108/93/108 98/95/98 109/94/109
f 110/96/110 111/98/111 112/97/112
f 113/93/113 114/94/114 88/99/88
f 115/100/115 110/96/110 116/101/116
f 108/102/108 109/103/109 115/100/115
f 101/104/101 113/93/113 88/99/88
f 117/12/117 89/3/89 88/1/88
f 113/105/113 111/98/111 114/106/114
f 110/107/110 112/108/112 96/10/96
f 108/93/108 100/104/100 97/99/97
f 104/109/104 106/110/106 90/6/90
f 112/108/112 103/111/103 96/10/96
f 103/111/103 107/112/107 96/10/96
f 118/113/118 97/1/97 100/16/100
f 115/114/115 100/104/100 108/93/108
f 101/104/101 111/114/111 113/93/113
f 115/100/115 95/116/95 100/115/100
f 103/117/103 111/98/111 101/118/101
f 116/101/116 95/116/95 115/100/115
f 96/10/96 116/119/116 110/107/110
f 96/10/96 107/112/107 94/9/94
f 96/10/96 95/11/95 116/119/116
f 103/117/103 112/97/112 111/98/111
f 105/91/105 92/92/92 106/110/106
f 91/4/91 117/121/117 98/120/98
f 117/121/117 91/4/91 89/5/89
f 107/112/107 102/18/102 94/9/94
f 90/6/90 106/110/106 92/92/92
f 118/113/118 100/16/100 99/14/99
f 104/109/104 90/6/90 91/4/91
f 101/16/101 88/1/88 119/113/119
f 97/1/97 104/2/104 91/3/91
f 93/90/93 105/91/105 119/148/119
f 119/113/119 88/1/88 90/2/90
f 90/2/90 93/8/93 119/113/119
f 119/113/119 102/14/102 101/16/101
f 109/103/109 110/96/110 115/100/115
f 88/99/88 114/94/114 117/95/117
f 110/96/110 114/106/114 111/98/111
f 109/103/109 114/106/114 110/96/110
f 97/99/97 98/95/98 108/93/108
f 118/113/118 105/8/105 104/2/104
f 118/113/118 104/2/104 97/1/97
f 119/148/119 105/91/105 118/149/118
