# Blender v2.75 (sub 0) OBJ File: ''
# www.blender.org
o laser
v 0.660646 0.633271 2.208363
v 0.660648 0.633260 70.070251
v 0.660648 0.110065 70.070251
v 0.660646 0.110076 2.208363
v -0.660643 0.110065 70.070251
v -0.660644 0.633271 2.208363
v -0.660643 0.633260 70.070251
v -0.660644 0.110076 2.208363
vn 1.000000 0.000000 -0.000000
vn 0.000000 -1.000000 -0.000000
vn 0.000000 1.000000 0.000000
vn -1.000000 0.000000 0.000000
s off
f 1//1 2//1 3//1
f 4//2 3//2 5//2
f 6//3 7//3 2//3
f 8//4 5//4 7//4
f 4//1 1//1 3//1
f 8//2 4//2 5//2
f 1//3 6//3 2//3
f 6//4 8//4 7//4
