# Blender v2.72 (sub 0) OBJ File: 'colosusRIG2.blend'
# www.blender.org
v 0.534338 -3.631714 1.204315
v 0.534338 -3.631714 -1.202555
v 1.693400 -3.036966 1.204314
v 1.693400 -3.036966 -1.202555
v 0.534338 -3.285564 1.204315
v 0.534338 -3.285564 -1.202555
v 1.693400 -2.690817 1.204314
v 1.693400 -2.690817 -1.202555
v 0.534338 -2.939417 1.204315
v 0.534338 -2.939417 -1.202555
v 1.693400 -2.344669 1.204314
v 1.693400 -2.344669 -1.202555
v 0.534338 -2.593267 1.204315
v 0.534338 -2.593267 -1.202555
v 1.693400 -1.998520 1.204314
v 1.693400 -1.998520 -1.202555
v 0.534338 -2.247120 1.204315
v 0.534338 -2.247120 -1.202555
v 1.693400 -1.652372 1.204314
v 1.693400 -1.652372 -1.202555
v 1.599999 -1.467592 -0.799425
v 0.599999 -1.067589 1.295878
v -0.559690 -1.067589 1.295878
v 0.599999 -7.287710 -1.300006
v 0.599999 -1.067589 -1.300006
v 1.599999 -1.467592 0.795298
v -0.559690 -2.139580 -0.450634
v 0.599999 -4.655918 1.295878
v -0.559690 -1.067589 -1.300006
v 0.599999 -3.889996 -1.300006
v -0.559690 -4.231762 -0.450634
v 1.599999 -3.375034 0.795298
v 1.599999 -3.375034 -0.799425
v -0.559690 -4.231762 1.295878
v 0.599999 -3.889996 1.295878
v 0.599999 -1.467590 1.295878
v 1.599999 -4.655918 0.795298
v 1.599999 -4.655918 -0.799425
v -0.559690 -7.287710 -1.300006
v 0.599999 -1.467590 -1.300006
v -1.298564 -1.878057 -0.176141
v -1.298564 -1.878057 1.021385
v -1.298564 -4.493284 -0.176141
v -1.298564 -4.493284 1.021385
v -0.559690 -1.878057 -0.176141
v -0.559690 -1.878057 1.021385
v -0.559690 -4.493284 -0.176141
v -0.559690 -4.493284 1.021385
v -0.559690 -4.368921 -0.235868
v -0.559690 -2.008921 -0.235868
v -0.559690 -4.368921 1.084131
v -0.559690 -2.008921 1.084131
v -1.131267 -4.368921 0.754131
v -1.131267 -2.008921 0.754131
v -1.131267 -4.368921 0.094131
v -1.131267 -2.008921 0.094131
v 0.426582 -1.067589 -0.970655
v 0.426582 0.000650 -0.970655
v 0.426583 0.000650 0.974795
v 0.426582 -1.067589 0.974795
v -0.428984 -1.067589 -0.970654
v -0.428984 0.769770 0.538814
v -0.428984 0.769770 -0.534673
v 0.426583 0.769770 0.538814
v 0.426582 0.769770 -0.534674
v -0.428984 -1.067589 0.974795
v -0.428984 -0.000650 0.970655
v -0.428984 -0.000650 -0.974795
v -0.559690 -7.287710 1.295878
v -0.559690 -2.139580 1.295878
v 0.599999 -1.973562 1.295878
v 0.599999 -1.973562 -1.300006
v 1.599999 -5.294037 0.795298
v 1.599999 -5.294037 -0.799425
v 0.599999 -7.287710 1.295879
v 0.599999 -5.294037 -1.300006
v 0.599999 -5.294037 1.295878
v 1.599999 -7.287710 -0.799425
v -0.559690 -6.571914 0.971385
v -0.559690 -5.176950 0.971385
v -0.559690 -5.176950 -0.126141
v -1.431756 -5.697982 -0.126141
v -1.431756 -5.697982 0.971385
v -1.431756 -5.176950 0.971385
v -1.431756 -5.176950 -0.126141
v 1.599999 -7.287710 0.795298
v -0.559690 -6.571914 -0.126141
v 0.599999 -4.655918 -1.300006
vt 0.371559 0.459576
vt 0.323028 0.358870
vt 0.323028 0.459576
vt 0.917024 0.296318
vt 0.917024 0.258936
vt 0.963565 0.258936
vt 0.579984 0.661671
vt 0.579984 0.683234
vt 0.545035 0.683234
vt 0.545035 0.661671
vt 0.917255 0.367261
vt 0.902646 0.396445
vt 0.889441 0.389835
vt 0.591048 0.683235
vt 0.978406 0.334553
vt 0.963796 0.367261
vt 0.991610 0.389835
vt 0.978406 0.396445
vt 0.978174 0.329145
vt 0.902415 0.329145
vt 0.386036 0.475898
vt 0.407891 0.475898
vt 0.407891 0.554046
vt 0.429747 0.475898
vt 0.451602 0.475898
vt 0.451602 0.554046
vt 0.429747 0.554046
vt 0.868039 0.253927
vt 0.836710 0.253857
vt 0.836765 0.228888
vt 0.810907 0.310577
vt 0.779731 0.310577
vt 0.779732 0.253800
vt 0.779732 0.228830
vt 0.810871 0.228831
vt 0.810908 0.253800
vt 0.893840 0.253985
vt 0.868094 0.228958
vt 0.779513 0.172054
vt 0.779513 0.147085
vt 0.810689 0.147085
vt 0.533970 0.683234
vt 0.528396 0.500938
vt 0.538027 0.484257
vt 0.557289 0.484257
vt 0.566920 0.500938
vt 0.557289 0.517620
vt 0.371559 0.358870
vt 0.963565 0.296318
vt 0.884387 0.258936
vt 0.752778 0.535361
vt 0.677018 0.535361
vt 0.752778 0.501516
vt 0.902646 0.334553
vt 0.902415 0.229752
vt 0.677018 0.501516
vt 0.643173 0.501516
vt 0.677018 0.319985
vt 0.643173 0.319985
vt 0.386036 0.554046
vt 0.893870 0.229015
vt 0.810651 0.172054
vt 0.996202 0.258936
vt 0.538027 0.517620
vt 0.996202 0.281289
vt 0.752778 0.319985
vt 0.937506 0.084626
vt 0.937506 0.059175
vt 0.969536 0.059175
vt 0.937506 0.043969
vt 0.969536 0.043969
vt 0.912055 0.018464
vt 0.994988 0.018464
vt 0.994988 0.059175
vt 0.937506 0.007938
vt 0.969536 0.007938
vt 0.738169 0.198771
vt 0.738169 0.256955
vt 0.691627 0.256955
vt 0.691627 0.198771
vt 0.677018 0.169587
vt 0.912055 0.059175
vt 0.969536 0.084626
vt 0.770805 0.198771
vt 0.752778 0.169587
vt 0.884387 0.281290
vt 0.978174 0.229752
vt 0.677018 0.286140
vt 0.752778 0.286140
vt 0.658991 0.256955
vt 0.658991 0.198771
vt 0.786623 0.319985
vt 0.862382 0.319985
vt 0.862382 0.501516
vt 0.786623 0.501516
vt 0.770805 0.256955
vn 0.456500 -0.889700 0.000000
vn 0.497300 0.751800 0.433000
vn 0.676900 -0.605700 0.418100
vn 0.676900 -0.605700 -0.418100
vn 0.000000 0.985700 0.168400
vn 0.000000 0.928400 0.371500
vn 0.000000 0.928400 -0.371500
vn 0.000000 -0.928400 0.371500
vn 0.000000 -0.985700 0.168400
vn 0.000000 -0.985700 -0.168400
vn 0.921300 0.218700 0.321400
vn 0.365900 0.575900 0.731000
vn 0.579900 -0.576700 0.575500
vn 0.000000 -0.724000 -0.689800
vn 0.000000 -0.928400 -0.371500
vn 0.579900 -0.576700 -0.575500
vn 0.921300 0.218700 -0.321400
vn 0.365900 0.575900 -0.731000
vn 0.176000 0.488800 -0.854500
vn 0.176000 0.488800 0.854500
vn -0.416000 0.554700 0.720600
vn -0.686200 0.610000 0.396200
vn -0.686200 -0.610000 0.396200
vn -0.686200 0.610000 -0.396200
vn -0.416000 0.554700 -0.720600
vn -0.416000 -0.554700 -0.720600
vn -0.686200 -0.610000 -0.396200
vn 0.000000 0.864000 0.503400
vn 0.001000 0.864500 -0.502700
vn -0.000000 0.864900 -0.502000
vn 0.457500 0.226700 0.859800
vn 0.707100 -0.000000 0.707100
vn 0.707100 -0.000000 -0.707100
vn -0.707200 -0.001200 -0.707000
vn -0.456500 0.225500 -0.860600
vn 0.461400 0.225700 -0.858000
vn -0.001400 0.863400 0.504400
vn -0.707000 0.001200 0.707200
vn 0.000000 0.724000 -0.689800
vn 0.000000 0.985700 -0.168400
vn -0.416000 -0.554700 0.720600
vn 0.000000 -0.724000 0.689800
vn 0.000000 0.724000 0.689800
vn 0.497300 0.751800 -0.433000
vn 0.365900 -0.575900 0.731000
vn 0.577300 0.577300 0.577300
vn 0.577300 0.577300 -0.577300
vn -0.577300 0.577300 0.577300
vn -0.577300 0.577300 -0.577300
vn -0.577300 -0.577300 -0.577300
vn 0.577400 -0.577400 -0.577400
vn -0.463100 0.225600 0.857100
vn 0.365900 -0.575900 -0.731000
vn -0.577300 -0.577300 0.577300
vn 0.000000 0.707100 -0.707100
vn -0.717400 -0.296700 -0.630300
vn -0.717400 -0.296700 0.630300
vn -0.633300 -0.632000 -0.446700
vn -0.633300 -0.632000 0.446700
vn 0.000000 0.707100 0.707100
vn 0.676900 0.605700 0.418100
vn 0.676900 0.605700 -0.418100
vn 0.577400 -0.577400 0.577400
s 1
f 13/1/1 16/2/1 15/3/1
f 17/1/1 20/2/1 19/3/1
f 5/1/1 8/2/1 7/3/1
f 9/1/1 12/2/1 11/3/1
f 1/1/1 4/2/1 3/3/1
f 32/4/2 37/5/3 38/6/4
f 42/7/5 46/8/6 45/9/7
f 48/9/8 44/10/9 43/7/10
f 26/11/11 36/12/12 71/13/13
f 31/14/14 47/8/15 43/7/10
f 72/15/16 21/16/17 26/11/11
f 21/16/17 72/17/16 40/18/18
f 30/19/19 35/20/20 32/4/2
f 52/21/21 54/22/22 53/23/23
f 56/24/24 50/25/25 49/26/26
f 54/22/22 56/24/24 55/27/27
f 64/28/28 65/29/29 63/30/30
f 59/31/31 60/32/32 57/33/33
f 61/34/34 68/35/35 58/36/36
f 68/35/35 63/30/30 65/29/29
f 59/37/31 64/28/28 62/38/37
f 66/39/38 60/40/32 59/41/31
f 68/35/35 61/34/34 66/39/38
f 27/42/39 41/10/40 45/9/7
f 51/43/41 53/44/23 55/45/27
f 52/43/21 50/46/25 56/47/24
f 48/9/8 34/42/42 44/10/9
f 36/12/12 26/11/11 21/16/17
f 42/7/5 70/14/43 46/8/6
f 14/48/1 16/2/1 13/1/1
f 18/48/1 20/2/1 17/1/1
f 6/48/1 8/2/1 5/1/1
f 10/48/1 12/2/1 9/1/1
f 2/48/1 4/2/1 1/1/1
f 33/49/44 32/4/2 38/6/4
f 37/5/3 32/4/2 28/50/45
f 41/10/40 42/7/5 45/9/7
f 47/8/15 48/9/8 43/7/10
f 22/51/46 25/52/47 23/53/48
f 71/54/13 72/15/16 26/11/11
f 33/49/44 30/19/19 32/4/2
f 37/5/3 28/55/45 38/6/4
f 29/56/49 25/57/47 39/58/50
f 39/58/50 25/57/47 24/59/51
f 51/60/41 52/21/21 53/23/23
f 55/27/27 56/24/24 49/26/26
f 53/23/23 54/22/22 55/27/27
f 62/38/37 64/28/28 63/30/30
f 58/36/36 59/31/31 57/33/33
f 57/33/33 61/34/34 58/36/36
f 58/36/36 68/35/35 65/29/29
f 67/61/52 59/37/31 62/38/37
f 67/62/52 66/39/38 59/41/31
f 67/62/52 68/35/35 66/39/38
f 38/6/4 88/63/53 33/49/44
f 49/46/26 51/43/41 55/45/27
f 54/64/22 52/43/21 56/47/24
f 30/65/19 33/49/44 88/63/53
f 29/56/49 69/66/54 23/53/48
f 29/56/49 39/58/50 69/66/54
f 25/52/47 29/56/49 23/53/48
f 40/18/18 36/12/12 21/16/17
f 81/67/55 85/68/49 84/69/48
f 85/68/49 82/70/56 83/71/57
f 87/72/58 82/70/56 85/68/49
f 79/73/59 80/74/60 84/69/48
f 82/70/56 87/75/58 79/76/59
f 73/77/61 86/78/3 78/79/4
f 73/77/61 74/80/62 76/81/18
f 83/71/57 82/70/56 79/76/59
f 83/71/57 79/73/59 84/69/48
f 81/82/55 87/72/58 85/68/49
f 84/69/48 85/68/49 83/71/57
f 80/83/60 81/67/55 84/69/48
f 74/80/62 73/77/61 78/79/4
f 73/77/61 77/84/12 86/78/3
f 77/85/12 73/77/61 76/81/18
f 32/4/2 35/86/20 28/50/45
f 28/55/45 88/87/53 38/6/4
f 69/66/54 39/58/50 24/88/51
f 24/88/53 86/78/3 75/89/45
f 74/80/62 78/79/4 24/90/53
f 76/91/18 74/80/62 24/90/53
f 24/88/53 78/79/4 86/78/3
f 69/66/54 24/88/51 75/89/63
f 69/66/54 75/92/63 23/53/48
f 24/93/51 25/94/47 75/92/63
f 75/92/63 22/95/46 23/53/48
f 25/94/47 22/95/46 75/92/63
f 77/84/12 75/96/45 86/78/3
