# Blender v2.72 (sub 0) OBJ File: 'colosusRIG2.blend'
# www.blender.org
v 2.463460 -7.835967 1.156223
v 2.463461 -8.335016 0.767669
v 4.905668 -7.207664 -0.100383
v 2.463460 -6.747012 0.232258
v 4.091599 -7.835967 0.267668
v 3.277529 -7.835968 0.267668
v 3.277529 -7.207665 -0.098759
v 2.463460 -6.747012 0.829649
v 2.463460 -7.207665 1.156222
v 2.463460 -7.207664 -0.100383
v 2.463460 -7.835967 0.267668
v 1.649392 -7.835967 0.267668
v 2.675740 -8.131273 -1.851897
v 3.065250 -8.131273 -1.851897
v 2.356989 -8.335016 -1.851897
v 3.384001 -8.335016 -1.851897
v 3.684564 -8.028345 -1.107913
v 3.684564 -8.335016 -1.107913
v 1.649392 -8.335016 0.767668
v 5.012140 -8.335016 -1.851897
v 5.719736 -8.335016 0.767668
v 3.985127 -8.335016 -1.851897
v 4.303878 -8.131273 -1.851897
v 4.693389 -8.131273 -1.851897
v 4.905668 -7.835967 1.156223
v 5.719736 -7.835967 0.267668
v 4.905668 -6.747012 0.829649
v 4.905668 -6.747012 0.232258
v 4.905668 -7.207665 1.152355
v 3.825952 -3.096217 -0.004360
v 3.136140 -3.096217 -0.004360
v 3.825952 -0.000000 0.949703
v 3.136140 -0.000000 0.949703
v 3.825952 -0.000000 -0.949703
v 3.136140 -0.000000 -0.949703
v 3.825952 0.671539 0.671540
v 3.136140 0.671539 0.671540
v 3.825952 0.949705 -0.000001
v 3.136140 0.949705 -0.000001
v 3.825952 0.671547 -0.671547
v 3.136140 0.671547 -0.671547
v 4.997457 0.064984 2.725397
v 4.197457 -4.120461 3.825398
v 5.815655 -4.120461 0.870760
v 5.815655 -4.120461 2.725397
v 2.797457 -2.157706 -0.274602
v 1.997457 0.764358 3.825398
v 1.997457 -0.935016 0.725398
v 4.197457 -1.435016 -0.874602
v 5.815655 -1.235016 2.725397
v 1.997457 -4.128610 3.825398
v 3.088133 -0.935016 -0.874602
v 4.197457 -0.935016 -0.874602
v 1.186769 -2.157706 0.870760
v 1.186769 -1.235016 2.725397
v 4.130708 -5.537751 4.469398
v 4.130708 -7.063759 4.469398
v 4.997457 -6.575733 3.282237
v 4.997457 -5.204566 3.282237
v 4.197457 0.764984 3.825398
v 4.997457 -5.204566 0.292258
v 4.997457 -0.935016 0.725397
v 2.797457 -1.435016 -0.874602
v 5.815655 -2.157706 0.870760
v 1.997457 -4.335016 0.292258
v 1.186769 -3.235016 0.870760
v 1.186769 -2.903286 2.725397
v 2.797457 -6.761526 -0.274602
v 1.997457 -6.561237 0.292258
v 2.997457 -5.537751 4.469398
v 2.997457 -7.063759 4.469398
v 4.197457 -2.157706 -0.274602
v 4.197457 -6.761526 -0.274602
v 4.997457 -6.561237 0.292258
v 1.997457 -6.575733 3.282237
v 4.091599 -6.579362 3.227450
v 3.277530 -7.835968 3.227449
v 3.277529 -6.579362 3.227450
v 4.091599 -7.158528 -0.051558
v 4.091598 -6.579362 -0.051560
v 3.277530 -7.835968 0.371882
v 3.277529 -6.579362 -0.051560
v 4.091599 -7.158528 3.227450
v 3.277529 -7.158528 -0.051559
v 4.091599 -7.207665 -0.098759
v 4.905668 -8.335016 0.767668
v 4.905668 -7.835967 0.267669
v 2.463460 -7.835967 2.602494
v 2.463461 -8.335016 2.991048
v 4.905668 -7.207664 3.859101
v 2.463460 -6.747012 3.526459
v 4.091599 -7.835967 3.491049
v 3.277529 -7.835968 3.491049
v 3.277529 -7.207665 3.857476
v 2.463460 -6.747012 2.929068
v 2.463460 -7.207665 2.602495
v 2.463460 -7.207664 3.859101
v 2.463460 -7.835967 3.491049
v 1.649392 -7.835967 3.491049
v 2.675740 -8.131273 5.610615
v 3.065250 -8.131273 5.610615
v 2.356989 -8.335016 5.610615
v 3.384001 -8.335016 5.610615
v 3.684564 -8.028345 4.866631
v 3.684564 -8.335016 4.866631
v 1.649392 -8.335016 2.991049
v 5.012140 -8.335016 5.610615
v 5.719736 -8.335016 2.991049
v 3.985127 -8.335016 5.610615
v 4.303878 -8.131273 5.610615
v 4.693389 -8.131273 5.610615
v 4.905668 -7.835967 2.602494
v 5.719736 -7.835967 3.491049
v 4.905668 -6.747012 2.929068
v 4.905668 -6.747012 3.526459
v 4.905668 -7.207665 2.606362
v 4.091599 -7.207665 3.857476
v 4.905668 -8.335016 2.991049
v 4.905668 -7.835967 3.491048
vt 0.280466 0.060138
vt 0.281351 0.091840
vt 0.266069 0.081707
vt 0.186583 0.118445
vt 0.186620 0.047171
vt 0.204957 0.047180
vt 0.297793 0.091424
vt 0.307472 0.076923
vt 0.071969 0.020916
vt 0.024820 0.029417
vt 0.007895 0.003674
vt 0.260251 0.064189
vt 0.319028 0.003531
vt 0.325439 0.061338
vt 0.346618 0.059904
vt 0.307661 0.003573
vt 0.087160 0.020916
vt 0.087160 0.037918
vt 0.822361 0.076592
vt 0.822205 0.108967
vt 0.775356 0.140572
vt 0.421437 0.329393
vt 0.411371 0.329393
vt 0.411371 0.318787
vt 0.421437 0.340000
vt 0.411371 0.340000
vt 0.421437 0.350607
vt 0.411371 0.350607
vt 0.421437 0.361214
vt 0.411371 0.361214
vt 0.421437 0.408453
vt 0.411371 0.408453
vt 0.421437 0.318787
vt 0.411371 0.271509
vt 0.523062 0.146619
vt 0.514759 0.249574
vt 0.449805 0.248147
vt 0.578506 0.362315
vt 0.565630 0.418719
vt 0.509805 0.405880
vt 0.555186 0.234046
vt 0.564999 0.179943
vt 0.586626 0.234122
vt 0.526879 0.061651
vt 0.494133 0.034723
vt 0.524588 0.004592
vt 0.672158 0.140226
vt 0.613686 0.180061
vt 0.439755 0.077471
vt 0.484291 0.077594
vt 0.484200 0.110667
vt 0.617398 0.351644
vt 0.602901 0.349976
vt 0.607571 0.309386
vt 0.529729 0.075771
vt 0.439664 0.110544
vt 0.525229 0.145494
vt 0.234847 0.038688
vt 0.234847 0.030237
vt 0.282695 0.038688
vt 0.497673 0.458629
vt 0.452144 0.291492
vt 0.458041 0.262876
vt 0.523012 0.263034
vt 0.454117 0.034612
vt 0.611927 0.302012
vt 0.586503 0.291814
vt 0.710521 0.052704
vt 0.775779 0.053019
vt 0.474960 0.380541
vt 0.529335 0.139976
vt 0.672349 0.076020
vt 0.624060 0.484246
vt 0.579741 0.477504
vt 0.608724 0.420814
vt 0.648440 0.521645
vt 0.605696 0.358184
vt 0.628962 0.241786
vt 0.624608 0.295819
vt 0.455401 0.465582
vt 0.416402 0.456612
vt 0.616782 0.367209
vt 0.447574 0.332157
vt 0.362265 0.246637
vt 0.426157 0.265295
vt 0.389724 0.122373
vt 0.422792 0.122948
vt 0.451316 0.160898
vt 0.363781 0.159388
vt 0.238807 0.047167
vt 0.238834 0.118442
vt 0.221372 0.047174
vt 0.197555 0.153752
vt 0.176938 0.153772
vt 0.176916 0.130013
vt 0.113394 0.082277
vt 0.091681 0.073505
vt 0.091681 0.043532
vt 0.197532 0.129994
vt 0.091681 0.121021
vt 0.091681 0.091049
vt 0.150606 0.152531
vt 0.168132 0.141672
vt 0.259982 0.123739
vt 0.150606 0.012023
vt 0.168132 0.022881
vt 0.012924 0.029417
vt 0.003794 0.048143
vt 0.204920 0.118455
vt 0.221399 0.118449
vt 0.007895 0.055160
vt 0.071969 0.037918
vt 0.301681 0.061385
vt 0.261591 0.134662
vt 0.085735 0.111719
vt 0.085735 0.100351
vt 0.085735 0.064203
vt 0.085735 0.052835
vt 0.003794 0.010691
vt 0.168125 0.118435
vt 0.168162 0.047161
vt 0.421437 0.271509
vt 0.485526 0.370287
vt 0.446940 0.361413
vt 0.678154 0.151094
vt 0.614078 0.018872
vt 0.529868 0.018667
vt 0.621098 0.319481
vt 0.452855 0.156162
vt 0.222971 0.030233
vt 0.222968 0.038684
vt 0.175123 0.030217
vt 0.630095 0.373182
vt 0.641453 0.296901
vt 0.436373 0.371666
vt 0.385304 0.264586
vt 0.175120 0.038668
vt 0.234850 0.030237
vt 0.175128 0.014762
vt 0.216798 0.014777
vt 0.241026 0.020352
vt 0.282695 0.020352
vt 0.334762 0.352905
vt 0.290150 0.337313
vt 0.335832 0.325209
vt 0.344711 0.349227
vt 0.349145 0.339592
vt 0.345467 0.329643
vt 0.255389 0.047161
vt 0.255417 0.118435
vn 0.822300 0.547200 0.156000
vn 0.645900 0.231900 0.727300
vn 0.640200 -0.247200 0.727300
vn -0.640500 -0.249000 0.726400
vn 0.616400 0.698400 0.363500
vn 0.617500 0.700300 -0.358100
vn 0.531500 0.360700 -0.766400
vn 0.000000 0.940200 -0.340700
vn 0.170100 0.570500 -0.803500
vn -0.822300 0.547200 0.156000
vn -0.524000 0.053100 0.850100
vn 0.584900 0.151400 -0.796800
vn -0.200700 0.574300 -0.793600
vn 0.200700 0.574300 -0.793600
vn -0.170100 0.570500 -0.803500
vn -0.584900 0.151400 -0.796800
vn -0.644200 0.232000 0.728800
vn -0.616700 0.699200 0.361700
vn -0.617500 0.700300 -0.358100
vn -0.531500 0.360700 -0.766400
vn 0.418300 0.605700 -0.676800
vn -0.239800 0.683400 -0.689500
vn -0.536500 0.744300 -0.397700
vn 0.630200 0.549000 0.549000
vn -0.630200 0.549000 0.549000
vn -0.638200 0.036100 0.769000
vn 0.630200 0.776400 0.000000
vn -0.630200 0.776400 0.000000
vn 0.630200 0.549000 -0.549000
vn -0.630200 0.549000 -0.549000
vn 0.638400 0.037000 -0.768800
vn -0.638400 0.037000 -0.768800
vn 0.542700 -0.839900 -0.001100
vn -0.542700 -0.839900 -0.001100
vn 0.638200 0.036100 0.769000
vn -0.681000 -0.037900 0.731300
vn -0.830600 -0.118200 -0.544100
vn -0.720000 -0.603200 -0.343100
vn 0.835600 -0.213000 -0.506400
vn 0.891900 0.154500 -0.425000
vn 0.892500 -0.234300 -0.385300
vn -0.897000 -0.242600 -0.369400
vn -0.945600 -0.178700 0.271700
vn -0.892600 0.153100 -0.424000
vn 0.352900 0.146500 0.924100
vn 0.887700 -0.074300 0.454300
vn 0.889000 -0.233900 0.393700
vn -0.455300 0.769900 0.447100
vn -0.961400 0.223900 0.159800
vn 0.375400 -0.744400 0.552100
vn 0.415300 0.172500 0.893100
vn -0.228200 0.153200 0.961500
vn 0.492600 -0.069300 -0.867500
vn -0.519800 0.060700 -0.852100
vn -0.320700 -0.765700 0.557500
vn -0.707100 -0.000000 -0.707100
vn -0.854400 -0.000000 -0.519600
vn -1.000000 -0.000000 0.000000
vn -0.277200 -0.776100 -0.566300
vn 0.767800 -0.614100 0.182700
vn -0.836200 -0.212600 -0.505500
vn 0.567900 0.801900 -0.185700
vn 0.536900 0.750900 -0.384500
vn 0.825300 -0.122300 -0.551200
vn 0.317200 0.816600 0.482200
vn 0.910700 0.254400 0.325400
vn 0.277200 -0.776100 -0.566300
vn 0.720000 -0.603200 -0.343100
vn -0.753200 -0.637000 0.163900
vn -0.739100 0.660100 0.134100
vn -0.611800 -0.321700 0.722700
vn 0.000000 -0.978000 -0.208700
vn -0.552900 -0.357900 -0.752400
vn 0.624300 -0.314000 -0.715300
vn 0.739100 0.660100 0.134100
vn 0.611800 -0.321700 0.722700
vn -0.624300 -0.314000 -0.715300
vn 0.552900 -0.357900 -0.752400
vn 0.524000 0.053100 0.850100
vn -0.768000 0.455400 -0.450400
vn 0.788700 -0.309400 -0.531200
vn 0.707100 -0.000000 -0.707100
vn 0.905400 -0.424500 -0.000000
vn 1.000000 0.000000 -0.000000
vn -0.424500 -0.905400 0.000000
vn -0.506700 -0.862100 -0.000000
vn 0.768000 0.455400 -0.450400
vn 0.822300 0.547200 -0.156000
vn 0.640200 -0.247200 -0.727300
vn 0.645900 0.231900 -0.727300
vn -0.640500 -0.249000 -0.726400
vn 0.616400 0.698400 -0.363500
vn 0.617500 0.700300 0.358100
vn 0.531500 0.360700 0.766400
vn 0.170100 0.570500 0.803500
vn 0.000000 0.940200 0.340700
vn -0.822300 0.547200 -0.156000
vn -0.524000 0.053100 -0.850100
vn 0.584900 0.151400 0.796800
vn -0.200700 0.574300 0.793600
vn 0.200700 0.574300 0.793600
vn -0.584900 0.151400 0.796800
vn -0.170100 0.570500 0.803500
vn -0.644200 0.232000 -0.728800
vn -0.617500 0.700300 0.358100
vn -0.616700 0.699200 -0.361700
vn -0.531500 0.360700 0.766400
vn -0.739100 0.660100 -0.134100
vn -0.611800 -0.321700 -0.722700
vn 0.000000 -0.978000 0.208700
vn 0.624300 -0.314000 0.715300
vn -0.552900 -0.357900 0.752400
vn 0.739100 0.660100 -0.134100
vn 0.611800 -0.321700 -0.722700
vn -0.624300 -0.314000 0.715300
vn 0.552900 -0.357900 0.752400
vn 0.524000 0.053100 -0.850100
vn -0.768000 0.455400 0.450400
vn 0.768000 0.455400 0.450400
s 1
f 87/1/1 29/2/2 25/3/3
f 1/4/4 25/5/3 29/6/2
f 27/7/5 29/2/2 28/8/6
f 6/9/7 17/10/8 14/11/9
f 11/1/10 2/12/11 1/3/4
f 14/13/9 7/14/12 6/15/7
f 7/14/12 14/13/9 13/16/13
f 24/16/14 23/13/15 85/14/16
f 9/2/17 8/7/18 4/8/19
f 6/9/7 7/17/12 85/18/16
f 85/14/16 23/13/15 5/15/20
f 53/19/21 52/20/22 48/21/23
f 36/22/24 37/23/25 33/24/26
f 38/25/27 39/26/28 37/23/25
f 40/27/29 41/28/30 39/26/28
f 34/29/31 35/30/32 41/28/30
f 34/29/31 30/31/33 31/32/34
f 32/33/35 33/24/26 31/34/34
f 51/35/36 65/36/37 69/37/38
f 72/38/39 64/39/40 44/40/41
f 66/41/42 67/42/43 54/43/44
f 43/44/45 59/45/46 45/46/47
f 47/47/48 55/48/49 67/42/43
f 57/49/50 56/50/51 70/51/52
f 53/52/21 49/53/53 63/54/54
f 56/50/51 43/55/45 70/51/52
f 43/44/45 56/50/51 59/45/46
f 71/56/55 70/51/52 51/57/36
f 66/41/42 65/36/37 51/35/36
f 82/58/56 84/59/57 78/60/58
f 44/40/41 64/39/40 45/61/47
f 68/62/59 69/63/38 65/64/37
f 59/45/46 56/50/51 58/65/60
f 63/66/54 46/67/61 54/43/44
f 42/68/62 62/69/63 48/21/23
f 61/70/64 44/40/41 45/61/47
f 51/71/36 43/55/45 60/72/65
f 42/73/62 50/74/66 62/75/63
f 42/73/62 60/76/65 50/74/66
f 72/38/39 49/77/53 64/39/40
f 54/43/44 48/78/23 63/79/54
f 54/43/44 55/48/49 48/78/23
f 61/70/64 59/80/46 58/81/60
f 64/39/40 49/82/53 62/75/63
f 68/62/59 63/54/54 49/53/53
f 72/38/39 73/83/67 49/53/53
f 46/67/61 63/54/54 68/62/59
f 74/84/68 69/37/38 68/85/59
f 57/86/50 71/87/55 75/88/69
f 69/37/38 74/84/68 58/89/60
f 28/90/6 4/91/19 27/92/5
f 43/55/45 51/71/36 70/51/52
f 12/93/70 19/94/71 2/95/11
f 18/96/72 22/97/73 20/98/74
f 26/93/75 87/99/1 21/94/76
f 15/100/77 16/101/78 18/96/72
f 12/102/70 15/100/77 19/103/71
f 24/104/14 87/99/1 26/93/75
f 86/12/79 87/1/1 25/3/3
f 26/105/75 21/106/76 20/98/74
f 18/107/72 17/10/8 22/108/73
f 12/93/70 11/99/10 13/104/13
f 9/109/17 29/6/2 8/110/18
f 22/108/73 17/10/8 23/111/15
f 23/111/15 17/10/8 5/112/20
f 10/113/80 13/16/13 11/1/10
f 15/114/77 12/93/70 13/104/13
f 24/104/14 26/93/75 20/114/74
f 15/100/77 13/115/13 14/116/9
f 23/117/15 24/118/14 20/98/74
f 16/101/78 15/100/77 14/116/9
f 17/10/8 18/107/72 16/119/78
f 17/10/8 6/9/7 5/112/20
f 17/10/8 16/119/78 14/11/9
f 23/117/15 20/98/74 22/97/73
f 4/91/19 8/110/18 27/92/5
f 1/4/4 2/120/11 86/121/79
f 86/121/79 25/5/3 1/4/4
f 5/112/20 6/9/7 85/18/16
f 29/6/2 27/92/5 8/110/18
f 10/113/80 7/14/12 13/16/13
f 62/69/63 53/19/21 48/21/23
f 35/30/32 34/29/31 31/32/34
f 32/33/35 36/22/24 33/24/26
f 36/22/24 38/25/27 37/23/25
f 38/25/27 40/27/29 39/26/28
f 40/27/29 34/29/31 41/28/30
f 30/122/33 32/33/35 31/34/34
f 75/88/69 51/35/36 69/37/38
f 61/123/64 74/124/68 73/83/67
f 61/123/64 72/38/39 44/40/41
f 61/123/64 73/83/67 72/38/39
f 55/48/49 47/125/48 48/78/23
f 50/126/66 60/72/65 43/55/45
f 50/126/66 43/55/45 45/127/47
f 71/56/55 57/49/50 70/51/52
f 51/71/36 47/47/48 67/42/43
f 52/128/22 53/52/21 63/54/54
f 67/42/43 55/48/49 54/43/44
f 75/129/69 71/56/55 51/57/36
f 67/42/43 66/41/42 51/35/36
f 79/130/81 80/131/82 83/132/83
f 56/50/51 57/49/50 58/65/60
f 54/43/44 46/67/61 66/41/42
f 60/72/65 42/68/62 47/47/48
f 46/67/61 68/62/59 65/64/37
f 46/67/61 65/64/37 66/41/42
f 59/80/46 61/70/64 45/61/47
f 47/47/48 51/71/36 60/72/65
f 42/68/62 48/21/23 47/47/48
f 64/39/40 50/74/66 45/61/47
f 49/82/53 53/133/21 62/75/63
f 48/78/23 52/134/22 63/79/54
f 74/135/68 61/70/64 58/81/60
f 50/74/66 64/39/40 62/75/63
f 73/83/67 68/62/59 49/53/53
f 73/136/67 74/84/68 68/85/59
f 58/89/60 57/86/50 75/88/69
f 75/88/69 69/37/38 58/89/60
f 80/131/82 76/137/84 83/132/83
f 82/58/56 79/130/81 84/138/57
f 80/131/82 79/130/81 82/58/56
f 77/139/85 81/140/86 83/132/83
f 81/140/86 79/130/81 83/132/83
f 84/59/57 81/141/86 77/142/85
f 78/60/58 84/59/57 77/142/85
f 9/109/17 1/4/4 29/6/2
f 24/16/14 3/113/87 87/1/1
f 11/1/10 1/3/4 9/2/17
f 32/143/35 30/144/33 34/145/31
f 41/146/30 35/143/32 39/147/28
f 39/147/28 35/143/32 33/145/26
f 34/145/31 40/148/29 38/147/27
f 37/148/25 39/147/28 33/145/26
f 36/146/24 32/143/35 38/147/27
f 32/143/35 34/145/31 38/147/27
f 35/143/32 31/144/34 33/145/26
f 28/90/6 3/149/87 4/91/19
f 3/113/87 29/2/2 87/1/1
f 29/2/2 3/113/87 28/8/6
f 3/113/87 24/16/14 85/14/16
f 19/103/71 15/100/77 18/96/72
f 87/99/1 86/95/79 21/94/76
f 18/96/72 20/98/74 21/106/76
f 19/103/71 18/96/72 21/106/76
f 11/99/10 12/93/70 2/95/11
f 10/113/80 9/2/17 4/8/19
f 10/113/80 11/1/10 9/2/17
f 3/149/87 10/150/80 4/91/19
f 119/1/88 112/3/89 116/2/90
f 88/4/91 116/6/90 112/5/89
f 114/7/92 115/8/93 116/2/90
f 93/9/94 101/11/95 104/10/96
f 98/1/97 88/3/91 89/12/98
f 101/13/95 93/15/94 94/14/99
f 94/14/99 100/16/100 101/13/95
f 111/16/101 117/14/102 110/13/103
f 96/2/104 91/8/105 95/7/106
f 93/9/94 117/18/102 94/17/99
f 117/14/102 92/15/107 110/13/103
f 115/90/93 114/92/92 91/91/105
f 99/93/108 89/95/98 106/94/109
f 105/96/110 107/98/111 109/97/112
f 113/93/113 108/94/114 119/99/88
f 102/100/115 105/96/110 103/101/116
f 99/102/108 106/103/109 102/100/115
f 111/104/101 113/93/113 119/99/88
f 118/12/117 112/3/89 119/1/88
f 113/105/113 107/98/111 108/106/114
f 105/107/110 109/108/112 104/10/96
f 99/93/108 100/104/100 98/99/97
f 96/109/104 95/110/106 116/6/90
f 109/108/112 110/111/103 104/10/96
f 110/111/103 92/112/107 104/10/96
f 97/113/118 98/1/97 100/16/100
f 102/114/115 100/104/100 99/93/108
f 111/104/101 107/114/111 113/93/113
f 102/100/115 101/116/95 100/115/100
f 110/117/103 107/98/111 111/118/101
f 103/101/116 101/116/95 102/100/115
f 104/10/96 103/119/116 105/107/110
f 104/10/96 92/112/107 93/9/94
f 104/10/96 101/11/95 103/119/116
f 110/117/103 109/97/112 107/98/111
f 91/91/105 114/92/92 95/110/106
f 88/4/91 118/121/117 89/120/98
f 118/121/117 88/4/91 112/5/89
f 92/112/107 117/18/102 93/9/94
f 116/6/90 95/110/106 114/92/92
f 97/113/118 100/16/100 94/14/99
f 96/109/104 116/6/90 88/4/91
f 111/16/101 119/1/88 90/113/119
f 98/1/97 96/2/104 88/3/91
f 115/90/93 91/91/105 90/149/119
f 90/113/119 119/1/88 116/2/90
f 116/2/90 115/8/93 90/113/119
f 90/113/119 117/14/102 111/16/101
f 106/103/109 105/96/110 102/100/115
f 119/99/88 108/94/114 118/95/117
f 105/96/110 108/106/114 107/98/111
f 106/103/109 108/106/114 105/96/110
f 98/99/97 89/95/98 99/93/108
f 97/113/118 91/8/105 96/2/104
f 97/113/118 96/2/104 98/1/97
f 90/149/119 91/91/105 97/150/118
